<svg width="262" height="82" viewBox="0 0 262 82" fill="none" xmlns="http://www.w3.org/2000/svg">
<path d="M65.9457 17.1421L60.1694 12.941L44.2405 17.1421L65.9457 34.8213V17.1421Z" fill="url(#paint0_linear_309_505)"/>
<path d="M60.1694 45.6748L65.9461 43.7491V59.8534L60.1694 61.4287V45.6748Z" fill="url(#paint1_linear_309_505)"/>
<path d="M65.9458 59.853V17.1423L81.3496 28.1699V55.8269L65.9458 59.853Z" fill="url(#paint2_linear_309_505)"/>
<path d="M44.2405 81.3834V17.1421L60.1694 12.941V77.1823L44.2405 81.3834Z" fill="url(#paint3_linear_309_505)"/>
<path d="M22.5343 71.9315H16.2328V50.9264H22.5343V71.9315Z" fill="url(#paint4_linear_309_505)"/>
<path d="M38.6725 67.5549L22.5214 71.9311V16.6168L16.2328 18.3674L30.6399 0.163086L44.94 10.6653L38.6725 12.4069V67.5549Z" fill="url(#paint5_linear_309_505)"/>
<path d="M16.2331 25.0192V71.931L0.128906 52.8513V29.3953L16.2331 25.0192Z" fill="url(#paint6_linear_309_505)"/>
<path d="M110.482 38.9022C104.98 38.9022 100.836 35.6869 100.836 30.3281V13.3943H106.552V29.828C106.552 31.7214 107.445 33.329 110.482 33.329C113.519 33.329 114.412 31.7214 114.412 29.828V13.3943H120.128V30.3281C120.128 35.6869 115.984 38.9022 110.482 38.9022ZM133.717 13.3943C138.647 13.3943 142.47 17.2169 142.47 21.9684C142.47 26.7199 138.647 30.5425 133.717 30.5425H129.966V38.402H124.25V13.3943H133.717ZM133.717 25.1837C135.468 25.1837 136.754 23.7904 136.754 21.9684C136.754 20.1464 135.468 18.7531 133.717 18.7531H129.966V25.1837H133.717ZM169.906 24.4692V26.6127C169.906 34.2579 164.583 38.9022 157.58 38.9022C149.721 38.9022 144.076 33.1147 144.076 25.9339C144.076 18.6817 149.828 12.8942 157.187 12.8942C161.975 12.8942 166.012 15.252 168.119 18.6102L163.261 21.3968C162.225 19.7534 159.974 18.4673 157.152 18.4673C152.936 18.4673 149.792 21.5754 149.792 25.9696C149.792 30.2209 152.793 33.329 157.652 33.329C160.974 33.329 163.154 31.8643 164.047 29.4707H157.366V24.4692H169.906ZM186.275 38.402L181.559 30.1852H178.844V38.402H173.128V13.3943H183.131C187.883 13.3943 191.705 17.2169 191.705 21.9684C191.705 25.0408 189.848 27.8273 187.097 29.2206L192.42 38.402H186.275ZM178.844 18.7531V25.1837H183.131C184.703 25.1837 185.989 23.7904 185.989 21.9684C185.989 20.1464 184.703 18.7531 183.131 18.7531H178.844ZM211.005 38.402L209.755 34.4723H200.466L199.216 38.402H192.964L201.467 13.3943H208.755L217.257 38.402H211.005ZM202.181 29.1135H208.04L205.111 19.932L202.181 29.1135ZM229.393 13.3943C236.288 13.3943 241.539 18.8246 241.539 25.8982C241.539 32.9718 236.288 38.402 229.393 38.402H219.39V13.3943H229.393ZM229.393 32.9003C233.323 32.9003 236.038 30.1852 236.038 25.8982C236.038 21.6111 233.323 18.896 229.393 18.896H225.106V32.9003H229.393ZM250.469 32.9003H260.472V38.402H244.753V13.3943H260.294V18.896H250.469V23.0402H259.401V28.4704H250.469V32.9003ZM116.912 73.402L115.662 69.4723H106.374L105.123 73.402H98.8712L107.374 48.3943H114.662L123.164 73.402H116.912ZM108.088 64.1135H113.947L111.018 54.932L108.088 64.1135ZM149.147 59.4692V61.6127C149.147 69.2579 143.824 73.9022 136.822 73.9022C128.963 73.9022 123.318 68.1147 123.318 60.9339C123.318 53.6817 129.07 47.8942 136.429 47.8942C141.216 47.8942 145.253 50.252 147.361 53.6102L142.502 56.3968C141.466 54.7534 139.216 53.4673 136.393 53.4673C132.178 53.4673 129.034 56.5754 129.034 60.9696C129.034 65.2209 132.035 68.329 136.894 68.329C140.216 68.329 142.395 66.8643 143.288 64.4707H136.608V59.4692H149.147ZM158.086 67.9003H168.089V73.402H152.37V48.3943H167.91V53.896H158.086V58.0402H167.017V63.4704H158.086V67.9003ZM185.247 48.3943H190.963V73.402H186.676L177.03 59.8264V73.402H171.314V48.3943H175.601L185.247 61.9699V48.3943ZM207.179 73.9022C199.641 73.9022 194.175 68.2576 194.175 60.8982C194.175 53.5388 199.641 47.8942 207.179 47.8942C211.717 47.8942 215.718 50.1449 217.897 53.6817L212.967 56.5397C211.86 54.6105 209.716 53.4673 207.179 53.4673C202.75 53.4673 199.892 56.4325 199.892 60.8982C199.892 65.3638 202.75 68.329 207.179 68.329C209.716 68.329 211.895 67.1858 212.967 65.2567L217.897 68.1147C215.754 71.6515 211.752 73.9022 207.179 73.9022ZM240.381 48.3943L231.986 63.7919V73.402H226.27V63.7919L217.874 48.3943H224.376L229.128 58.0402L233.879 48.3943H240.381Z" fill="url(#paint7_linear_309_505)"/>
<defs>
<linearGradient id="paint0_linear_309_505" x1="-97.0202" y1="-164.029" x2="88.1763" y2="50.5756" gradientUnits="userSpaceOnUse">
<stop stop-color="#413EFF"/>
<stop offset="1" stop-color="#4C84FF"/>
</linearGradient>
<linearGradient id="paint1_linear_309_505" x1="98.9435" y1="48.2682" x2="61.7617" y2="58.9905" gradientUnits="userSpaceOnUse">
<stop stop-color="#413EFF"/>
<stop offset="1" stop-color="#4C84FF"/>
</linearGradient>
<linearGradient id="paint2_linear_309_505" x1="78.7238" y1="-1.41242" x2="73.6475" y2="69.1303" gradientUnits="userSpaceOnUse">
<stop stop-color="white"/>
<stop offset="1" stop-color="#4C84FF"/>
</linearGradient>
<linearGradient id="paint3_linear_309_505" x1="57.3688" y1="-37.6468" x2="37.1312" y2="117.647" gradientUnits="userSpaceOnUse">
<stop stop-color="white"/>
<stop offset="1" stop-color="#4C84FF"/>
</linearGradient>
<linearGradient id="paint4_linear_309_505" x1="19.3834" y1="4.92498" x2="19.3834" y2="90.9887" gradientUnits="userSpaceOnUse">
<stop stop-color="#413EFF"/>
<stop offset="1" stop-color="#4C84FF"/>
</linearGradient>
<linearGradient id="paint5_linear_309_505" x1="30.5864" y1="-10.3055" x2="30.5864" y2="71.9311" gradientUnits="userSpaceOnUse">
<stop stop-color="white"/>
<stop offset="1" stop-color="#4C84FF"/>
</linearGradient>
<linearGradient id="paint6_linear_309_505" x1="8.27736" y1="22.2184" x2="8.27736" y2="71.931" gradientUnits="userSpaceOnUse">
<stop stop-color="white"/>
<stop offset="1" stop-color="#4C84FF"/>
</linearGradient>
<linearGradient id="paint7_linear_309_505" x1="180.371" y1="8.40204" x2="217.154" y2="108.305" gradientUnits="userSpaceOnUse">
<stop stop-color="#4C84FF"/>
</linearGradient>
</defs>
</svg>
